<svg xmlns="http://www.w3.org/2000/svg" width="100" height="100" xmlns:v="https://vecta.io/nano"><path d="M25 0h50a25 25 45 0 1 25 25v50a25 25 135 0 1-25 25H25A25 25 45 0 1 0 75V25A25 25 135 0 1 25 0z" fill="#666"/><path d="M24.545 4.545h50.909a20 20 45 0 1 20 20v50.909a20 20 135 0 1-20 20H24.545a20 20 45 0 1-20-20V24.545a20 20 135 0 1 20-20z"/><path d="M30.867 48.639l4.923.522v27.636h-4.364l-.298-2.331q-.914 1.305-2.294 2.107-1.38.783-3.207.783-2.499 0-4.14-1.305-1.622-1.305-2.424-3.655-.783-2.368-.783-5.501 0-3.021.932-5.371.932-2.35 2.685-3.692 1.772-1.343 4.196-1.343 1.455 0 2.648.503 1.193.503 2.126 1.492zm-3.45 11.524q-1.865 0-2.946 1.622-1.063 1.604-1.063 5.128 0 2.48.448 3.972.448 1.473 1.268 2.126.821.653 1.939.653 1.231 0 2.163-.727.951-.746 1.641-1.846v-8.988q-.69-.914-1.548-1.417-.839-.522-1.902-.522zM50 56.49q2.946 0 4.998 1.287 2.051 1.287 3.114 3.636 1.082 2.331 1.082 5.464 0 3.207-1.082 5.557-1.082 2.35-3.133 3.636-2.051 1.287-4.998 1.287-2.928 0-4.998-1.249-2.051-1.268-3.133-3.599-1.082-2.35-1.082-5.594 0-3.096 1.082-5.445 1.082-2.35 3.152-3.655Q47.072 56.49 50 56.49zm0 3.711q-2.07 0-3.096 1.622-1.007 1.622-1.007 5.091 0 3.506 1.007 5.128 1.007 1.604 3.077 1.604 2.07 0 3.077-1.604 1.007-1.622 1.007-5.165 0-3.45-1.007-5.054Q52.051 60.2 50 60.2z" fill="purple"/><path d="M74.149 44.965v5.576q2.256.205 4.065 1.026 1.809.802 3.096 1.939l-2.536 2.629q-1.044-.895-2.219-1.399-1.175-.503-2.406-.615v7.198q2.275.765 3.972 1.79 1.716 1.007 2.648 2.517.951 1.51.951 3.767 0 1.958-.876 3.618-.858 1.66-2.555 2.779-1.678 1.1-4.14 1.417v5.52h-2.834v-5.408q-2.723-.186-4.811-1.212-2.089-1.044-3.431-2.312l2.517-2.853q1.231 1.119 2.611 1.828 1.399.69 3.114.821v-8.671q-3.786-1.231-5.538-3.002-1.734-1.772-1.734-4.401 0-1.846.858-3.338.858-1.492 2.48-2.443 1.622-.951 3.935-1.193v-5.576zm0 21.035v7.459q2.816-.615 2.816-3.599 0-1.268-.597-2.182-.578-.914-2.219-1.678zm-2.834-11.823q-1.287.205-1.995.988-.69.765-.69 1.883 0 1.063.503 1.79.503.727 2.182 1.455z" fill="#fff"/></svg>